<?xml version="1.0" encoding="UTF-8"?>
<svg width="512" height="512" viewBox="0 0 512 512" xmlns="http://www.w3.org/2000/svg">
  <!-- Background -->
  <rect width="512" height="512" rx="64" fill="#00B0F0"/>

  <!-- Receipt Paper -->
  <rect x="128" y="80" width="256" height="352" rx="8" fill="white"/>

  <!-- Receipt Lines -->
  <rect x="160" y="120" width="192" height="8" rx="4" fill="#E0E0E0"/>
  <rect x="160" y="148" width="160" height="8" rx="4" fill="#E0E0E0"/>
  <rect x="160" y="176" width="192" height="8" rx="4" fill="#E0E0E0"/>
  <rect x="160" y="204" width="128" height="8" rx="4" fill="#E0E0E0"/>
  <rect x="160" y="232" width="192" height="8" rx="4" fill="#E0E0E0"/>
  <rect x="160" y="260" width="160" height="8" rx="4" fill="#E0E0E0"/>

  <!-- Total Line (highlighted) -->
  <rect x="160" y="320" width="192" height="12" rx="6" fill="#00B0F0"/>

  <!-- AI Sparkle Icon -->
  <circle cx="368" cy="368" r="48" fill="#FFC107"/>
  <path d="M368,332 L376,356 L400,364 L376,372 L368,396 L360,372 L336,364 L360,356 Z" fill="white"/>

  <!-- Zig-zag bottom edge -->
  <path d="M128,432 L144,416 L160,432 L176,416 L192,432 L208,416 L224,432 L240,416 L256,432 L272,416 L288,432 L304,416 L320,432 L336,416 L352,432 L368,416 L384,432 L384,432 L128,432 Z" fill="white"/>
</svg>
